<svg height='300px' width='300px'  fill="#000000" xmlns="http://www.w3.org/2000/svg" xmlns:xlink="http://www.w3.org/1999/xlink" version="1.1" x="0px" y="0px" viewBox="0 0 100 100" enable-background="new 0 0 100 100" xml:space="preserve"><g><path d="M20.195,59.774c0.762,1.021,4.647,6.239,5.83,7.83c0.026,0.011,4.347,1.887,6.486,2.82   c-1.279-4.967-2.555-9.936-3.831-14.902c-1.489-5.788-10.433-3.329-8.942,2.466C19.89,58.582,20.045,59.179,20.195,59.774z"></path><path d="M79.412,55c-0.058-1-0.522-1.982-1.593-2.814c-6.216-4.833-12.52-5.931-20.213-4.601   c-6.799,1.175-9.764,6.705-16.675,6.365c-5.979-0.297-5.951,8.974,0,9.27c8.036,0.397,14.62-6.342,21.636-7.158   c-6.956,5.168-18.876,16.257-22.424,19.59c-5.125-2.231-15.418-6.71-15.442-6.72c-1.185-1.589-7.565-10.162-9.57-12.857   c-3.525-4.739-11.581-0.123-8.006,4.679c0.493,0.661,15.576,10.68,21.435,14.638c0.066,0.002,0.717,0.751,1.372,1.498   c-0.76-0.049-2.565-0.168-2.696-0.172c-5.859-3.959-11.716-7.918-17.575-11.878c-4.97-3.358-9.604,4.68-4.681,8.007   c5.901,3.988,11.801,7.974,17.701,11.961c2.084,1.406,4.708,1.18,7.132,1.333c5.888,0.373,11.884,0.7,17.668,1.908   c0.245,0.053,1.019-0.018,1.049-0.018C54.754,88.029,81,71,81,71h16V55H79.412z"></path><path d="M36,63.165v9.58l3.526,1.062L42,72.093v-7.06C38,64.887,36,63.165,36,63.165z"></path><path d="M42,52.111V34h-6v19.685C36,53.685,38,52.123,42,52.111z"></path><path d="M51.938,24.307c-14.778,0.923-9.5,9.5-9.5,9.5C51.476,38.359,51.938,24.307,51.938,24.307z"></path><path d="M26.226,16.414c-3.572,20.845,10.085,16.327,10.085,16.327C45.607,21.672,26.226,16.414,26.226,16.414z"></path></g></svg>